<svg xmlns="http://www.w3.org/2000/svg" width="220" height="105" viewBox="0 0 220 105" fill="none">
  <rect width="220" height="105" rx="5" fill="white" />
  <path
    d="M109.708 84.7849C96.3369 84.7849 85.8992 78.2845 84 66.4619L97.3713 63.3645C98.234 70.432 103.367 74.0966 110.225 74.0966C115.487 74.0966 119.671 71.7407 119.628 66.4184C119.585 60.4851 112.684 58.6093 105.092 56.2534C95.948 53.374 86.1567 49.9713 86.1567 38.3667C86.1567 26.6313 95.6461 20 108.155 20C119.11 20 130.152 24.4935 132.655 36.578L120.146 39.7192C118.982 33.437 114.798 30.6885 108.932 30.6885C103.712 30.6885 99.2697 32.8698 99.2697 38.0614C99.2697 42.904 105.395 44.518 112.469 46.6558C121.872 49.5353 133 53.1998 133 65.7641C133 79.1574 121.915 84.7849 109.708 84.7849Z"
    fill="#3B82F6" />
  <path d="M185.092 20H198.624V85.178H185.092V58.3844H157.532V85.178H144V20H157.532V46.6112H185.092V20Z"
    fill="#3B82F6" />
  <path d="M62.092 20H75.6236V85.178H62.092V58.3844H34.5317V85.178H21V20H34.5317V46.6112H62.092V20Z" fill="#3B82F6" />
</svg>